<svg xmlns="http://www.w3.org/2000/svg" width="1241.6" height="270.94" viewBox="0 0 1241.6 270.94"><defs><style>.cls-1{fill:#fff;}</style></defs><title>Asset 2</title><g id="Layer_2" data-name="Layer 2"><g id="Layer_1-2" data-name="Layer 1"><path class="cls-1" d="M38.31,196.82H0V0H169.5V37.94H38.31Z"/><path class="cls-1" d="M915.89,87.1a56.33,56.33,0,1,1-.07,112.66c-31.91-.18-56.63-24.9-56.53-56.55C859.38,111.8,884.34,87.06,915.89,87.1Zm-26.68,56.62a40.06,40.06,0,0,0,1.5,10.37c4.86,18.19,28.76,25,42.43,12.14,8.65-8.16,10.44-18.48,8.52-29.59-4-23.05-26.46-26.61-40-18.26C892.28,124.2,889.68,133.48,889.21,143.72Z"/><path class="cls-1" d="M349.91,87.12a56.13,56.13,0,0,1,56.32,56.82c-.16,31.18-25.14,55.84-56.51,55.79-31.54,0-56.82-25.2-56.49-56.22C293.57,111.56,318.28,87,349.91,87.12Zm-26.28,56.35a35.93,35.93,0,0,0,1.58,11.09c5.13,17.78,28.36,24.36,42.05,11.88,8.46-7.71,10.11-17.64,9-28.4a26.14,26.14,0,0,0-39.69-20C326.93,123.82,324,133,323.64,143.47Z"/><path class="cls-1" d="M495.8,155.33l23.62,39.76c-.76,2-1.9,2.5-3.21,2.5-9.23,0-18.46,0-28.07,0-6.24-10.62-12.32-21.32-19-31.5H450.78v31.38H423.12V90.33a2.47,2.47,0,0,1,2.22-.61c16.36,0,32.73-.18,49.08.08,12.37.19,23.13,4.43,30,15.3,8,12.73,7.82,26.2,2,39.7C504.32,149.5,500.58,152.87,495.8,155.33Zm-44.44-11.68c5.33,0,10.32.12,15.3,0,5.2-.16,9.51-2.22,11.85-7.1a19.22,19.22,0,0,0,.59-15.92c-1.71-4.34-5-7-9.53-7.35-6-.42-12.12-.1-18.22-.1Z"/><path class="cls-1" d="M778.09,169.54v27.23H749.41V89.92a6.72,6.72,0,0,1,1.79-.54c20,0,40-.42,60,.26,19,.64,31.85,13.21,34.56,32.13a54.84,54.84,0,0,1-.93,21.93c-3.86,14.66-14.52,21.7-28.52,24.75-11,2.4-22.15,1.16-33.25,1.08C781.54,169.53,780,169.54,778.09,169.54Zm.12-23.66a13.55,13.55,0,0,0,1.42.18c7.36,0,14.72.11,22.08,0,8.55-.17,13.89-5,15.29-13.44,1.55-9.35-3-17.49-11.4-19-9.07-1.61-18.29-.36-27.39-.65Z"/><path class="cls-1" d="M1129,197.74c-21.13-15.34-40.72-32-61.26-48.72v47.54h-26.42c-1.51-5.73-.83-104.69.69-107.34,2.24-.18,3.6,1.44,5.11,2.66,18.48,14.88,36,30.89,53.62,46.73.88.79,1.54,1.94,3.36,2.26V89.53h26.1C1131.53,96.11,1130.86,194.25,1129,197.74Z"/><path class="cls-1" d="M633.15,129H605.68c-3-6.64-7.46-11.52-14.49-13.71C574.82,110.2,558.83,120.74,557,138c-1.12,10.57.3,20.51,8.54,28.23a25.13,25.13,0,0,0,38.66-5.63c.5-.85,1-1.7,1.63-2.76h27.3c.77,2.29-.28,4.26-.86,6.21a50.88,50.88,0,0,1-45.58,35.88c-27,1.8-49.06-12.37-57.43-37.88-10.41-31.76,6.15-66.9,41.25-74.21,28.41-5.91,55.61,10.48,62.51,37.84A4.92,4.92,0,0,1,633.15,129Z"/><path class="cls-1" d="M650.22,89.11h74.37V112H677.84v18.26h45.3v23.38H677.91v18.31h47.68v24.26H650.22Z"/><path class="cls-1" d="M282.69,89.25v24.3H223.28v21.18h50.51c.68,8.33.17,16.33.35,24.75h-51v37.09H194.92V89.25Z"/><path class="cls-1" d="M1241.6,89.64v27.61h-32v79.33h-29v-79.3h-33.13V89.64Z"/><path class="cls-1" d="M82.66,79.57l58.72,57.58L82.85,191.47C80.94,187.43,81.17,82,82.66,79.57Z"/><path class="cls-1" d="M1017.16,196.94H988.44V89.63h28.72Z"/><path class="cls-1" d="M1052.77,241.27c1.25-1.24-.58-2.23-.1-3.78h10.87c1.78,3.91,1.73,8.18,3.86,12.18l3.58-12.16h9.44v-7.2h11.94v6.3c1.28,1.4,2.71.52,4,1.21.61,1.9.3,4,.17,6.17l-4,.55v16.72a60.07,60.07,0,0,1-12,.11V244.87l-.7-.16-10.15,26a63.23,63.23,0,0,1-11.24,0c4-7.66,1.3-14.52-1.83-21.34-1.13-2.46-1.57-5.21-3.2-7.45l.06.07-.19-1-.64.15Z"/><path class="cls-1" d="M1025.8,262h-11.85V251.08a2.63,2.63,0,0,0-3.19-.52V261.8H998.4V230.57c7.13-.22,14.49-1,21.66.34,6.23,1.13,8.45,9.8,2.76,14.78C1026.39,249.86,1027,253.16,1025.8,262ZM1011,236.82a18.81,18.81,0,0,0,.14,6.18,2.11,2.11,0,0,0,2.42,0,16,16,0,0,0-.17-6.67C1012.5,236.1,1011.78,235.89,1011,236.82Z"/><path class="cls-1" d="M1109.61,231v8c3-.91,5.6-1.95,8.49-1.66,3.65.37,6.32,2.49,6.45,6,.23,6.2.07,12.42.07,18.78h-11.9V245.47c-2.77-.91-2.89.56-2.89,2.2,0,4.72,0,9.45,0,14.41h-11.67V231Z"/><path class="cls-1" d="M1194.47,245.44v16.62h-11.54V237.49c3.93.58,7.94-1.38,11.79,1.48a13.33,13.33,0,0,1,6.52-1.89c4.05-.29,7.84,2.74,8,6.72.2,6,.05,11.95.05,18.16-4,.66-7.8.26-11.65.33-1.4-5.79.83-11.91-1.23-17.35Z"/><path class="cls-1" d="M821.61,250.42l3.06-12.75a22,22,0,0,1,7.07.16l-5.33,23.51h-9.09l-2.46-12.47-.53,0-2.43,12.5h-9.08l-5.39-23.72h7.5l2,11.88.6.14,2.48-12h8.58l2.52,12.93Z"/><path class="cls-1" d="M1181.06,249.46c0,9.55-3.38,12.64-13.81,12.61-9.62,0-13.15-3.4-13.19-12.6,0-9.79,3.72-13.47,13.7-13.44C1177.39,236.06,1181.06,239.77,1181.06,249.46ZM1166,256c.85,1,1.7.89,2.71,0V242.3a1.82,1.82,0,0,0-2.71-.07Z"/><path class="cls-1" d="M1152.88,251h-14c-1.12,1.94-.38,3.78-.6,5.3a2,2,0,0,0,2.46.47l.7-3.3h11.14c-.65,7-5.56,9.67-16.23,8.76-7.52-.64-10.94-5.9-10.18-15.63.62-8,4.77-10.8,15-10C1150.17,237.2,1153.55,241.21,1152.88,251Zm-12.43-9.46c-3.53,1-2.12,3.1-2.21,4.71,1,.43,1.62.51,2.21-.15Z"/><path class="cls-1" d="M1053.46,241.92c.46,6.7.39,13.4.25,20.27h-10.36l-.71-2.09a3.12,3.12,0,0,0-1,.34,8.74,8.74,0,0,1-8,2c-4.11-.92-5.68-2.89-5.72-7.46,0-4.18,1.63-6.25,5.57-7.18,2.81-.67,5.68-.44,8.56-.58.72-1.59.34-3,.3-4.31-3-1.48-2.05,1.67-3.26,2.43H1029c-1-3.2.65-5,3.06-6.41a17.75,17.75,0,0,1,20.72,2.29l-.07-.08c.06.49.12,1,.83.8Zm-11.35,13.47c0-1.51.46-3.18-.33-4.94-.8-.18-1.6-.51-2.35.41a12.37,12.37,0,0,0,.05,4.57C1040.3,256.14,1041.07,256.1,1042.11,255.39Z"/><path class="cls-1" d="M906,261.12v-23.5c5.27-.08,10.59-.77,15.79.87,4.77,1.51,7.54,5.81,7.54,11.33s-2.91,9.41-8,10.93C918.35,261.67,910.49,261.88,906,261.12Zm7.28-5.43c2.7.06,5.37.45,6.81-2.2a7.32,7.32,0,0,0-.29-7.8c-1.52-2.3-3.86-2.8-6.52-2.12Z"/><path class="cls-1" d="M873.94,250.45c1.48,3.76,3.37,7.28,4.06,11.45h-7.23c-2.05-2.74-1.36-7.15-5.23-9.18-1.85,3-.16,6.11-1.32,9.08-2.16.56-4.45.26-6.92.16V237.89c4.93-.18,9.89-.6,14.76.45,4.29.93,6.18,6.09,3.78,9.82A23.6,23.6,0,0,1,873.94,250.45Zm-4.35-3.87c.3-3.8-2.28-3.62-5.06-3.7.06,1.6-.55,3,.46,4.44C866.31,247.19,867.67,247.59,869.59,246.58Z"/><path class="cls-1" d="M771.22,249.57c-.12-7.76,4.24-12.37,11.77-12.41s12.25,4.52,12.36,12c.12,7.85-4.45,12.81-11.89,12.9S771.34,257.5,771.22,249.57Zm16.38-.8a10.36,10.36,0,0,0-.25-1.8c-.55-2.17-1.51-4.12-4.12-4.09s-3.77,1.87-4.18,4.07a10.5,10.5,0,0,0,.66,6.95,3.91,3.91,0,0,0,3.53,2.35,3.77,3.77,0,0,0,3.52-2.34C787.51,252.56,787.67,251.08,787.59,248.78Z"/><path class="cls-1" d="M938.9,262V238c4.07,0,8-.34,11.94.07,7.33.77,9.26,5.36,4.89,11.62,2.68,2.12,3.54,5,2.14,8.16s-4.6,4-7.79,4.18C946.51,262.16,942.91,262,938.9,262Zm7-5.46a7.23,7.23,0,0,0,4.89-.81c.71-3.68-.28-4.4-5.11-3.62A10.26,10.26,0,0,0,945.86,256.57Zm-.19-9.57c2.67,0,5.24.53,5-3.18-1.7-1-3.24-1.53-5-.53Z"/><path class="cls-1" d="M842.44,252.36c-.37,1.4-.5,2.24.2,3.22,3,.86,6.28-.1,9.63.57v5.21H834.8V237.72h17.09c.68,1.67.41,3.36.15,5.38h-8.69c-1.69,1-1.08,2.05-1.2,3.32h9.12c.75,2.07.49,3.85.33,5.93Z"/><path class="cls-1" d="M900.12,237.76v5.09c-3.11,1-6.4-.08-9.44.61-.79.84-.6,1.69-.38,2.71,2.92,1,6.09-.09,9.13.65a12.32,12.32,0,0,1,.1,5.47h-8.68a2.52,2.52,0,0,0,0,3.55h9.25a14.28,14.28,0,0,1,.23,5.48H882.84V237.76Z"/><path class="cls-1" d="M749.51,238a46.79,46.79,0,0,1,12.07.3c4.21.72,6.74,3.63,6.82,7.66s-2.45,6.82-6.79,7.62c-1.45.27-2.92.39-4.68.62v7.68h-7.42Zm7.11,5.2a11.29,11.29,0,0,0,.22,5.21,3.39,3.39,0,0,0,4-1.35,3.92,3.92,0,0,0-.11-2.92A3.51,3.51,0,0,0,756.61,243.15Z"/><path class="cls-1" d="M976,237.89h7.9c-3.1,8-11,14.06-8.15,23.63-2.74,1-5,.35-8.07.65,2.53-10-4.52-16.25-8.32-24.14h8.31c1.84,2,2.12,5.16,4.53,7.42Z"/></g></g></svg>
